<?xml version="1.0" standalone="no"?>
<!DOCTYPE svg PUBLIC "-//W3C//DTD SVG 20010904//EN"
 "http://www.w3.org/TR/2001/REC-SVG-20010904/DTD/svg10.dtd">
<svg version="1.0" xmlns="http://www.w3.org/2000/svg"
 width="523.000000pt" height="523.000000pt" viewBox="0 0 523.000000 523.000000"
 preserveAspectRatio="xMidYMid meet">
<metadata>
Created by potrace 1.14, written by Peter Selinger 2001-2017
</metadata>
<g transform="translate(0.000000,523.000000) scale(0.100000,-0.100000)"
fill="#000000" stroke="none">
<path d="M795 5215 c-197 -32 -356 -115 -497 -261 -75 -76 -98 -110 -153 -220
-69 -139 -88 -222 -89 -389 0 -106 4 -157 18 -210 42 -157 117 -294 220 -404
28 -29 67 -70 86 -90 19 -20 82 -88 140 -151 58 -62 119 -127 135 -145 17 -17
82 -87 145 -155 63 -68 129 -138 145 -155 17 -18 57 -61 90 -97 33 -35 112
-120 175 -187 63 -68 116 -126 117 -130 3 -7 -32 -48 -125 -146 -37 -39 -114
-122 -172 -184 -58 -63 -118 -128 -135 -146 -48 -50 -250 -267 -285 -305 -34
-37 -232 -249 -289 -309 -18 -20 -52 -61 -75 -91 -22 -30 -43 -57 -46 -60 -19
-19 -75 -134 -102 -210 -55 -157 -61 -366 -14 -525 86 -286 296 -507 569 -599
133 -45 169 -46 1161 -45 517 0 968 4 1001 9 33 5 85 11 115 15 30 4 97 16
149 27 51 11 101 21 110 23 53 11 238 72 320 104 866 344 1475 1099 1626 2015
24 144 30 228 30 426 0 313 -33 524 -127 810 -182 554 -542 1028 -1028 1355
-143 95 -263 162 -400 222 -196 86 -438 157 -630 187 -52 8 -111 18 -130 22
-19 4 -471 8 -1005 9 -750 2 -988 0 -1050 -10z m1912 -609 c257 -20 480 -81
718 -195 105 -51 285 -161 355 -217 231 -186 432 -430 553 -671 78 -153 162
-396 181 -518 4 -22 10 -65 16 -95 21 -128 29 -358 16 -461 -3 -24 -8 -66 -11
-94 -9 -79 -15 -112 -45 -230 -159 -632 -617 -1146 -1226 -1379 -164 -62 -368
-110 -529 -123 -49 -4 -495 -7 -990 -7 l-900 0 -42 22 c-48 25 -75 50 -121
109 -33 42 -33 43 -22 102 12 67 40 153 64 197 8 16 44 59 78 96 l63 68 855 1
c476 0 886 5 925 10 406 55 781 293 1000 634 239 371 288 864 125 1270 -166
418 -522 735 -949 845 -178 46 -201 47 -1097 48 l-852 1 -55 58 c-106 111
-114 124 -141 223 -35 132 -33 142 43 223 52 55 85 75 143 85 51 9 1730 7
1845 -2z m-77 -1226 c288 -63 505 -268 591 -557 27 -90 33 -271 13 -368 -70
-327 -349 -584 -675 -621 -72 -8 -1109 -12 -1109 -4 0 5 26 34 196 216 62 65
126 135 144 154 18 19 85 91 149 159 174 185 181 193 192 233 12 47 -4 81 -70
151 -25 27 -57 61 -71 76 -14 15 -74 80 -135 145 -60 65 -125 134 -144 155
-18 20 -59 63 -90 96 -31 33 -83 88 -115 123 l-59 62 549 0 c499 -1 557 -2
634 -20z"/>
</g>
</svg>
