<svg width="262" height="105" viewBox="0 0 262 105" fill="none" xmlns="http://www.w3.org/2000/svg">
<circle cx="52.5" cy="52.5" r="52.5" fill="white" fill-opacity="0.04"/>
<circle cx="52.5" cy="52.5" r="50.5" stroke="white" stroke-opacity="0.1" stroke-width="4"/>
<circle cx="209.5" cy="52.5" r="52.5" fill="white" fill-opacity="0.04"/>
<circle cx="209.5" cy="52.5" r="50.5" stroke="white" stroke-opacity="0.1" stroke-width="4"/>
<path fill-rule="evenodd" clip-rule="evenodd" d="M43.7939 23.1537C44.4948 23.052 45.1559 23 45.7496 23H53.8749V29.9022H35.4369C34.9907 29.9022 34.5936 30.0108 34.2263 30.2203C33.8991 30.4068 33.5954 30.6732 33.3015 31.014C33.1299 31.2131 32.9616 31.4375 32.7939 31.6862C32.7584 31.7388 32.7229 31.7925 32.6874 31.8474L32.6869 31.8433C32.6788 31.7833 32.6718 31.7235 32.666 31.6639L32.665 31.6536C32.6506 31.5024 32.6435 31.3528 32.6436 31.2049C32.6444 26.7371 39.1083 23.8337 43.7939 23.1537ZM53.875 29.9022C56.7969 29.9022 59.6903 30.48 62.3898 31.6026C65.0893 32.7252 67.542 34.3706 69.6081 36.4449C71.6743 38.5192 73.3131 40.9816 74.4314 43.6918C75.5495 46.402 76.125 49.3068 76.125 52.2403C76.125 55.1737 75.5495 58.0785 74.4314 60.7887C73.3131 63.4989 71.6743 65.9613 69.6081 68.0356C67.542 70.11 65.0893 71.7553 62.3898 72.878C59.6903 74.0005 56.7969 74.5783 53.875 74.5783V81.4805C57.6998 81.4805 61.487 80.7242 65.0206 79.2548C68.5543 77.7853 71.765 75.6315 74.4695 72.9163C77.174 70.2011 79.3194 66.9776 80.783 63.43C82.2466 59.8824 83 56.0802 83 52.2403C83 48.4004 82.2466 44.5981 80.783 41.0505C79.3194 37.5029 77.174 34.2795 74.4695 31.5643C71.765 28.8491 68.5543 26.6952 65.0206 25.2258C61.487 23.7563 57.6998 23 53.875 23V29.9022ZM52.875 43.4556C54.0241 43.4556 55.1619 43.6829 56.2235 44.1243C57.2851 44.5658 58.2496 45.2128 59.0621 46.0287C59.8748 46.8444 60.5193 47.8127 60.959 48.8785C61.3986 49.9443 61.625 51.0866 61.625 52.2403C61.625 53.3939 61.3986 54.5362 60.959 55.602C60.5193 56.6678 59.8748 57.6362 59.0621 58.4519C58.2496 59.2677 57.2851 59.9148 56.2235 60.3563C55.1619 60.7976 54.0241 61.0249 52.875 61.0249H34.5V67.9271H52.875C54.9269 67.9271 56.9588 67.5214 58.8544 66.733C60.7501 65.9447 62.4726 64.7892 63.9235 63.3325C65.3745 61.8759 66.5254 60.1466 67.3106 58.2433C68.0959 56.3402 68.5 54.3003 68.5 52.2403C68.5 50.1803 68.0959 48.1404 67.3106 46.2372C66.5254 44.334 65.3745 42.6047 63.9235 41.148C62.4726 39.6913 60.7501 38.5359 58.8544 37.7475C56.9588 36.9592 54.9269 36.5534 52.875 36.5534H34.5V43.4556H52.875ZM32.8384 74.5987C34.1353 78.9344 41.5935 81.4805 45.7496 81.4805H53.8749V74.5783H35.4369C34.5131 74.5783 33.8001 74.1128 33.1247 73.2511C32.9778 73.0637 32.8326 72.8574 32.6874 72.6331C32.6872 72.6345 32.687 72.6358 32.6869 72.6372C32.5938 73.3259 32.6535 73.9805 32.8384 74.5987Z" fill="url(#paint0_linear_2300_6673)"/>
<path fill-rule="evenodd" clip-rule="evenodd" d="M43.7939 23.1537C44.4948 23.052 45.1559 23 45.7496 23H53.8749V29.9022H35.4369C34.9907 29.9022 34.5936 30.0108 34.2263 30.2203C33.8991 30.4068 33.5954 30.6732 33.3015 31.014C33.1299 31.2131 32.9616 31.4375 32.7939 31.6862C32.7584 31.7388 32.7229 31.7925 32.6874 31.8474L32.6869 31.8433C32.6788 31.7833 32.6718 31.7235 32.666 31.6639L32.665 31.6536C32.6506 31.5024 32.6435 31.3528 32.6436 31.2049C32.6444 26.7371 39.1083 23.8337 43.7939 23.1537ZM53.875 29.9022C56.7969 29.9022 59.6903 30.48 62.3898 31.6026C65.0893 32.7252 67.542 34.3706 69.6081 36.4449C71.6743 38.5192 73.3131 40.9816 74.4314 43.6918C75.5495 46.402 76.125 49.3068 76.125 52.2403C76.125 55.1737 75.5495 58.0785 74.4314 60.7887C73.3131 63.4989 71.6743 65.9613 69.6081 68.0356C67.542 70.11 65.0893 71.7553 62.3898 72.878C59.6903 74.0005 56.7969 74.5783 53.875 74.5783V81.4805C57.6998 81.4805 61.487 80.7242 65.0206 79.2548C68.5543 77.7853 71.765 75.6315 74.4695 72.9163C77.174 70.2011 79.3194 66.9776 80.783 63.43C82.2466 59.8824 83 56.0802 83 52.2403C83 48.4004 82.2466 44.5981 80.783 41.0505C79.3194 37.5029 77.174 34.2795 74.4695 31.5643C71.765 28.8491 68.5543 26.6952 65.0206 25.2258C61.487 23.7563 57.6998 23 53.875 23V29.9022ZM52.875 43.4556C54.0241 43.4556 55.1619 43.6829 56.2235 44.1243C57.2851 44.5658 58.2496 45.2128 59.0621 46.0287C59.8748 46.8444 60.5193 47.8127 60.959 48.8785C61.3986 49.9443 61.625 51.0866 61.625 52.2403C61.625 53.3939 61.3986 54.5362 60.959 55.602C60.5193 56.6678 59.8748 57.6362 59.0621 58.4519C58.2496 59.2677 57.2851 59.9148 56.2235 60.3563C55.1619 60.7976 54.0241 61.0249 52.875 61.0249H34.5V67.9271H52.875C54.9269 67.9271 56.9588 67.5214 58.8544 66.733C60.7501 65.9447 62.4726 64.7892 63.9235 63.3325C65.3745 61.8759 66.5254 60.1466 67.3106 58.2433C68.0959 56.3402 68.5 54.3003 68.5 52.2403C68.5 50.1803 68.0959 48.1404 67.3106 46.2372C66.5254 44.334 65.3745 42.6047 63.9235 41.148C62.4726 39.6913 60.7501 38.5359 58.8544 37.7475C56.9588 36.9592 54.9269 36.5534 52.875 36.5534H34.5V43.4556H52.875ZM32.8384 74.5987C34.1353 78.9344 41.5935 81.4805 45.7496 81.4805H53.8749V74.5783H35.4369C34.5131 74.5783 33.8001 74.1128 33.1247 73.2511C32.9778 73.0637 32.8326 72.8574 32.6874 72.6331C32.6872 72.6345 32.687 72.6358 32.6869 72.6372C32.5938 73.3259 32.6535 73.9805 32.8384 74.5987Z" fill="url(#paint1_linear_2300_6673)"/>
<path fill-rule="evenodd" clip-rule="evenodd" d="M32.6875 31.8599C32.7189 32.5053 33.0643 34.19 33.5588 34.8293L48.8732 51.3171C49.1074 51.5692 49.2183 51.8922 49.2085 52.2115C49.2159 52.5277 49.1049 52.8469 48.873 53.0965L33.6358 69.5012L33.6596 69.523C33.1889 70.0406 32.7216 71.9206 32.6875 72.6206C32.3176 80.213 45.25 81.468 45.25 81.468C42.8746 81.4474 41.0292 81.4605 39.5464 81.4711C36.5037 81.4928 34.9881 81.5035 33.553 81.19C31.3195 80.6475 29.3443 79.34 27.9678 77.4927C26.5913 75.6454 25.8995 73.3739 26.0118 71.0696C26.1226 68.7941 27.0106 66.6275 28.5248 64.9331L28.5 64.9098L40.2992 52.2067L28.5924 39.603L28.5828 39.6117C27.0332 37.908 26.124 35.7152 26.0118 33.4109C25.8995 31.1066 26.5913 28.8352 27.9678 26.9878C29.3443 25.1405 31.3195 23.833 33.553 23.2905C34.9883 22.9769 36.504 22.9877 39.5472 23.0094C41.0298 23.02 42.875 23.0331 45.25 23.0126C45.25 23.0126 32.3176 24.2674 32.6875 31.8599Z" fill="#FA4990"/>
<path fill-rule="evenodd" clip-rule="evenodd" d="M32.6875 31.8599C32.7189 32.5053 33.0643 34.19 33.5588 34.8293L48.8732 51.3171C49.1074 51.5692 49.2183 51.8922 49.2085 52.2115C49.2159 52.5277 49.1049 52.8469 48.873 53.0965L33.6358 69.5012L33.6596 69.523C33.1889 70.0406 32.7216 71.9206 32.6875 72.6206C32.3176 80.213 45.25 81.468 45.25 81.468C42.8746 81.4474 41.0292 81.4605 39.5464 81.4711C36.5037 81.4928 34.9881 81.5035 33.553 81.19C31.3195 80.6475 29.3443 79.34 27.9678 77.4927C26.5913 75.6454 25.8995 73.3739 26.0118 71.0696C26.1226 68.7941 27.0106 66.6275 28.5248 64.9331L28.5 64.9098L40.2992 52.2067L28.5924 39.603L28.5828 39.6117C27.0332 37.908 26.124 35.7152 26.0118 33.4109C25.8995 31.1066 26.5913 28.8352 27.9678 26.9878C29.3443 25.1405 31.3195 23.833 33.553 23.2905C34.9883 22.9769 36.504 22.9877 39.5472 23.0094C41.0298 23.02 42.875 23.0331 45.25 23.0126C45.25 23.0126 32.3176 24.2674 32.6875 31.8599Z" fill="url(#paint2_linear_2300_6673)"/>
<path d="M230.793 32.389C226.968 30.6343 222.867 29.3415 218.58 28.6011C218.502 28.5868 218.424 28.6225 218.383 28.6939C217.856 29.6319 217.272 30.8557 216.863 31.8176C212.251 31.1271 207.663 31.1271 203.146 31.8176C202.737 30.8343 202.131 29.6319 201.601 28.6939C201.561 28.6249 201.483 28.5892 201.405 28.6011C197.12 29.3391 193.019 30.6319 189.192 32.389C189.159 32.4033 189.131 32.4271 189.112 32.458C181.333 44.0789 179.203 55.4142 180.248 66.6089C180.253 66.6637 180.283 66.7161 180.326 66.7494C185.458 70.5182 190.429 72.8063 195.308 74.3228C195.386 74.3467 195.469 74.3181 195.519 74.2538C196.673 72.6777 197.702 71.0159 198.584 69.2683C198.636 69.166 198.586 69.0445 198.48 69.004C196.848 68.385 195.294 67.6303 193.799 66.7732C193.681 66.7042 193.672 66.5351 193.78 66.4541C194.095 66.2184 194.41 65.9732 194.71 65.7256C194.764 65.6804 194.84 65.6708 194.904 65.6994C204.723 70.1826 215.354 70.1826 225.057 65.6994C225.121 65.6685 225.197 65.678 225.254 65.7232C225.554 65.9708 225.869 66.2184 226.186 66.4541C226.294 66.5351 226.287 66.7042 226.169 66.7732C224.674 67.6469 223.12 68.385 221.486 69.0017C221.38 69.0421 221.333 69.166 221.385 69.2683C222.286 71.0134 223.314 72.6753 224.447 74.2514C224.495 74.3181 224.58 74.3467 224.658 74.3228C229.56 72.8063 234.532 70.5182 239.664 66.7494C239.709 66.7161 239.737 66.6661 239.742 66.6113C240.993 53.669 237.646 42.4267 230.871 32.4604C230.854 32.4271 230.826 32.4033 230.793 32.389ZM200.05 59.7925C197.094 59.7925 194.658 57.0784 194.658 53.7452C194.658 50.412 197.047 47.6979 200.05 47.6979C203.077 47.6979 205.49 50.4358 205.442 53.7452C205.442 57.0784 203.054 59.7925 200.05 59.7925ZM219.987 59.7925C217.031 59.7925 214.595 57.0784 214.595 53.7452C214.595 50.412 216.983 47.6979 219.987 47.6979C223.014 47.6979 225.426 50.4358 225.379 53.7452C225.379 57.0784 223.014 59.7925 219.987 59.7925Z" fill="white"/>
<rect x="105" y="51" width="52" height="5" fill="white" fill-opacity="0.14"/>
<defs>
<linearGradient id="paint0_linear_2300_6673" x1="83" y1="52.2403" x2="30.25" y2="52.2403" gradientUnits="userSpaceOnUse">
<stop stop-color="#8570E4"/>
<stop offset="1" stop-color="#FA4990"/>
</linearGradient>
<linearGradient id="paint1_linear_2300_6673" x1="83" y1="52.2403" x2="32.625" y2="52.2403" gradientUnits="userSpaceOnUse">
<stop offset="0.546875" stop-opacity="0"/>
<stop offset="0.958044" stop-opacity="0.5"/>
</linearGradient>
<linearGradient id="paint2_linear_2300_6673" x1="37.6046" y1="23" x2="37.6046" y2="81.4805" gradientUnits="userSpaceOnUse">
<stop stop-opacity="0.2"/>
<stop offset="0.499239" stop-opacity="0"/>
<stop offset="1" stop-opacity="0.2"/>
</linearGradient>
</defs>
</svg>
