<svg width="938" height="256" viewBox="0 0 938 256" fill="none" xmlns="http://www.w3.org/2000/svg">
<path d="M128.05 9.65664e-06C102.732 -0.00982262 77.9792 7.48889 56.9232 21.5477C35.8672 35.6066 19.4534 55.594 9.75775 78.9821C0.0621103 102.37 -2.47981 128.108 2.45348 152.941C7.38678 177.774 19.5737 200.586 37.4728 218.492C55.3719 236.398 78.1793 248.594 103.01 253.537C127.841 258.48 153.58 255.948 176.972 246.261C200.364 236.575 220.358 220.169 234.425 199.118C248.492 178.068 256 153.318 256 128C255.997 94.0617 242.518 61.5135 218.524 37.5108C194.531 13.5082 161.988 0.0158242 128.05 9.65664e-06V9.65664e-06ZM221.731 134.989H162.289C160.518 143.859 155.488 151.744 148.19 157.089C140.892 162.433 131.857 164.849 122.866 163.86C113.874 162.87 105.58 158.548 99.6189 151.745C93.6575 144.942 90.4617 136.152 90.6617 127.109C90.8617 118.065 94.443 109.425 100.699 102.893C106.956 96.3597 115.433 92.4082 124.459 91.8175C133.485 91.2268 142.405 94.0397 149.459 99.7014C156.514 105.363 161.191 113.463 162.567 122.403H221.681C223.35 122.403 224.951 123.066 226.131 124.246C227.311 125.426 227.974 127.027 227.974 128.696C227.974 130.365 227.311 131.966 226.131 133.146C224.951 134.326 223.35 134.989 221.681 134.989H221.731Z" fill="white"/>
<path d="M584.25 9L484.36 83.1898L502.832 39.4188L584.25 9Z" fill="#E2761B" stroke="#E2761B" stroke-linecap="round" stroke-linejoin="round"/>
<path d="M353.649 9L452.736 83.8926L435.168 39.4188L353.649 9Z" fill="#E4761B" stroke="#E4761B" stroke-linecap="round" stroke-linejoin="round"/>
<path d="M548.309 180.972L521.706 221.731L578.628 237.392L594.992 181.875L548.309 180.972Z" fill="#E4761B" stroke="#E4761B" stroke-linecap="round" stroke-linejoin="round"/>
<path d="M343.108 181.875L359.372 237.392L416.294 221.731L389.69 180.972L343.108 181.875Z" fill="#E4761B" stroke="#E4761B" stroke-linecap="round" stroke-linejoin="round"/>
<path d="M413.081 112.103L397.219 136.096L453.74 138.606L451.732 77.869L413.081 112.103Z" fill="#E4761B" stroke="#E4761B" stroke-linecap="round" stroke-linejoin="round"/>
<path d="M524.818 112.103L485.665 77.1663L484.36 138.606L540.78 136.096L524.818 112.103Z" fill="#E4761B" stroke="#E4761B" stroke-linecap="round" stroke-linejoin="round"/>
<path d="M416.294 221.731L450.226 205.166L420.912 182.277L416.294 221.731Z" fill="#E4761B" stroke="#E4761B" stroke-linecap="round" stroke-linejoin="round"/>
<path d="M487.673 205.166L521.706 221.731L516.987 182.277L487.673 205.166Z" fill="#E4761B" stroke="#E4761B" stroke-linecap="round" stroke-linejoin="round"/>
<path d="M521.706 221.731L487.673 205.166L490.384 227.353L490.083 236.689L521.706 221.731Z" fill="#D7C1B3" stroke="#D7C1B3" stroke-linecap="round" stroke-linejoin="round"/>
<path d="M416.294 221.731L447.918 236.689L447.717 227.353L450.227 205.166L416.294 221.731Z" fill="#D7C1B3" stroke="#D7C1B3" stroke-linecap="round" stroke-linejoin="round"/>
<path d="M448.42 167.62L420.109 159.287L440.087 150.151L448.42 167.62Z" fill="#233447" stroke="#233447" stroke-linecap="round" stroke-linejoin="round"/>
<path d="M489.48 167.62L497.813 150.151L517.891 159.287L489.48 167.62Z" fill="#233447" stroke="#233447" stroke-linecap="round" stroke-linejoin="round"/>
<path d="M416.294 221.731L421.113 180.972L389.69 181.875L416.294 221.731Z" fill="#CD6116" stroke="#CD6116" stroke-linecap="round" stroke-linejoin="round"/>
<path d="M516.887 180.972L521.706 221.731L548.31 181.875L516.887 180.972Z" fill="#CD6116" stroke="#CD6116" stroke-linecap="round" stroke-linejoin="round"/>
<path d="M540.78 136.096L484.36 138.606L489.58 167.62L497.913 150.151L517.991 159.287L540.78 136.096Z" fill="#CD6116" stroke="#CD6116" stroke-linecap="round" stroke-linejoin="round"/>
<path d="M420.109 159.287L440.188 150.151L448.42 167.62L453.741 138.606L397.22 136.096L420.109 159.287Z" fill="#CD6116" stroke="#CD6116" stroke-linecap="round" stroke-linejoin="round"/>
<path d="M397.219 136.096L420.912 182.277L420.109 159.287L397.219 136.096Z" fill="#E4751F" stroke="#E4751F" stroke-linecap="round" stroke-linejoin="round"/>
<path d="M517.991 159.287L516.987 182.277L540.78 136.096L517.991 159.287Z" fill="#E4751F" stroke="#E4751F" stroke-linecap="round" stroke-linejoin="round"/>
<path d="M453.74 138.606L448.419 167.62L455.045 201.853L456.551 156.777L453.74 138.606Z" fill="#E4751F" stroke="#E4751F" stroke-linecap="round" stroke-linejoin="round"/>
<path d="M484.36 138.606L481.649 156.677L482.854 201.853L489.58 167.62L484.36 138.606Z" fill="#E4751F" stroke="#E4751F" stroke-linecap="round" stroke-linejoin="round"/>
<path d="M489.581 167.62L482.854 201.853L487.673 205.166L516.988 182.277L517.992 159.287L489.581 167.62Z" fill="#F6851B" stroke="#F6851B" stroke-linecap="round" stroke-linejoin="round"/>
<path d="M420.109 159.287L420.912 182.277L450.227 205.166L455.046 201.853L448.42 167.62L420.109 159.287Z" fill="#F6851B" stroke="#F6851B" stroke-linecap="round" stroke-linejoin="round"/>
<path d="M490.082 236.689L490.384 227.353L487.874 225.144H450.026L447.717 227.353L447.918 236.689L416.294 221.731L427.337 230.766L449.725 246.327H488.175L510.663 230.766L521.706 221.731L490.082 236.689Z" fill="#C0AD9E" stroke="#C0AD9E" stroke-linecap="round" stroke-linejoin="round"/>
<path d="M487.673 205.166L482.854 201.853H455.045L450.227 205.166L447.717 227.353L450.026 225.144H487.874L490.383 227.353L487.673 205.166Z" fill="#161616" stroke="#161616" stroke-linecap="round" stroke-linejoin="round"/>
<path d="M588.467 88.0086L597 47.0486L584.25 9L487.673 80.68L524.818 112.103L577.323 127.463L588.969 113.91L583.949 110.296L591.981 102.967L585.756 98.1482L593.788 92.0243L588.467 88.0086Z" fill="#763D16" stroke="#763D16" stroke-linecap="round" stroke-linejoin="round"/>
<path d="M341 47.0486L349.533 88.0086L344.112 92.0243L352.144 98.1482L346.02 102.967L354.051 110.296L349.031 113.91L360.576 127.463L413.082 112.103L450.227 80.68L353.649 9L341 47.0486Z" fill="#763D16" stroke="#763D16" stroke-linecap="round" stroke-linejoin="round"/>
<path d="M577.323 127.463L524.818 112.103L540.78 136.097L516.988 182.277L548.31 181.875H594.992L577.323 127.463Z" fill="#F6851B" stroke="#F6851B" stroke-linecap="round" stroke-linejoin="round"/>
<path d="M413.081 112.103L360.576 127.463L343.108 181.875H389.69L420.912 182.277L397.22 136.097L413.081 112.103Z" fill="#F6851B" stroke="#F6851B" stroke-linecap="round" stroke-linejoin="round"/>
<path d="M484.36 138.606L487.673 80.68L502.933 39.4188H435.168L450.227 80.68L453.741 138.606L454.945 156.878L455.046 201.853H482.854L483.055 156.878L484.36 138.606Z" fill="#F6851B" stroke="#F6851B" stroke-linecap="round" stroke-linejoin="round"/>
<path d="M810 256C880.692 256 938 198.692 938 128C938 57.3076 880.692 0 810 0C739.308 0 682 57.3076 682 128C682 198.692 739.308 256 810 256Z" fill="url(#paint0_linear_13_200)"/>
<path d="M901.633 129.559H879.068C879.068 83.5742 841.659 46.2978 795.51 46.2978C749.933 46.2978 712.878 82.6616 711.971 127.859C711.033 174.579 755.02 215.149 801.912 215.149H807.811C849.152 215.149 904.562 182.901 913.219 143.61C914.818 136.367 909.076 129.559 901.633 129.559ZM761.978 131.608C761.978 137.757 756.93 142.787 750.759 142.787C744.588 142.787 739.54 137.755 739.54 131.608V113.523C739.54 107.374 744.588 102.344 750.759 102.344C756.93 102.344 761.978 107.374 761.978 113.523V131.608ZM800.934 131.608C800.934 137.757 795.887 142.787 789.716 142.787C783.544 142.787 778.497 137.755 778.497 131.608V113.523C778.497 107.374 783.546 102.344 789.716 102.344C795.887 102.344 800.934 107.374 800.934 113.523V131.608Z" fill="url(#paint1_linear_13_200)"/>
<defs>
<linearGradient id="paint0_linear_13_200" x1="810" y1="0" x2="810" y2="256" gradientUnits="userSpaceOnUse">
<stop stop-color="#534BB1"/>
<stop offset="1" stop-color="#551BF9"/>
</linearGradient>
<linearGradient id="paint1_linear_13_200" x1="812.722" y1="46.2978" x2="812.722" y2="215.149" gradientUnits="userSpaceOnUse">
<stop stop-color="white"/>
<stop offset="1" stop-color="white" stop-opacity="0.82"/>
</linearGradient>
</defs>
</svg>
